<?xml version="1.0" encoding="UTF-8" standalone="no"?>
<!DOCTYPE svg PUBLIC "-//W3C//DTD SVG 1.1//EN" "http://www.w3.org/Graphics/SVG/1.1/DTD/svg11.dtd">
<svg width="100%" height="100%" viewBox="0 0 1072 288" version="1.1" xmlns="http://www.w3.org/2000/svg" xmlns:xlink="http://www.w3.org/1999/xlink" xml:space="preserve" xmlns:serif="http://www.serif.com/" style="fill-rule:evenodd;clip-rule:evenodd;stroke-linejoin:round;stroke-miterlimit:2;">
    <g transform="matrix(1,0,0,1,-500,-2178)">
        <g id="danfit_logo_full_color" transform="matrix(0.741336,0,0,0.282385,-1374.38,2132.75)">
            <rect x="2529.34" y="161.924" width="1444.16" height="1017.7" style="fill:none;"/>
            <g transform="matrix(6.36108,0,0,13.3298,-17182.9,-6829.11)">
                <g>
                    <g transform="matrix(0.831153,0,0,1.04127,-3800.28,6.91569)">
                        <circle cx="8308.27" cy="547.358" r="6.506" style="fill:rgb(0,58,148);"/>
                    </g>
                    <g transform="matrix(0.653244,0,0,0.818382,-2107.61,146.902)">
                        <circle cx="8308.27" cy="547.358" r="6.506" style="fill:rgb(0,58,148);"/>
                    </g>
                    <g transform="matrix(0.686439,0,0,0.859969,-2590.91,121.826)">
                        <circle cx="8308.27" cy="547.358" r="6.506" style="fill:rgb(0,58,148);"/>
                    </g>
                    <g transform="matrix(0.552307,0,0,0.691928,-1464.8,217.225)">
                        <circle cx="8308.27" cy="547.358" r="6.506" style="fill:rgb(0,58,148);"/>
                    </g>
                </g>
                <g transform="matrix(1,0,0,1,151.7,-118.922)">
                    <g>
                        <g>
                            <g transform="matrix(0.447226,0,0,0.560283,312.579,-3291.51)">
                                <path d="M6347.94,7091.97C6347.98,7091.74 6347.92,7091.52 6347.78,7091.34C6347.63,7091.17 6347.42,7091.06 6347.19,7091.06C6345.15,7091.01 6340.28,7090.91 6339.5,7090.91C6337.52,7090.91 6334.22,7090.91 6331.66,7090.91C6330.77,7090.91 6329.92,7090.51 6329.34,7089.82C6328.76,7089.14 6328.52,7088.23 6328.68,7087.35L6332.1,7067.9C6332.36,7066.45 6333.62,7065.39 6335.09,7065.39C6337.72,7065.39 6341.73,7065.39 6343.99,7065.39C6344.35,7065.39 6350,7065.46 6351.95,7065.48C6352.33,7065.48 6352.66,7065.21 6352.72,7064.84C6354.07,7057.22 6358.05,7034.66 6359.22,7027.97C6359.48,7026.52 6360.74,7025.46 6362.21,7025.46L6380.16,7025.46C6381.06,7025.46 6381.91,7025.86 6382.49,7026.55C6383.06,7027.23 6383.31,7028.14 6383.15,7029.02C6381.92,7035.98 6378.33,7056.35 6376.93,7064.33C6376.89,7064.55 6376.95,7064.78 6377.09,7064.96C6377.23,7065.13 6377.45,7065.23 6377.67,7065.24C6379.88,7065.28 6385.38,7065.39 6385.38,7065.39C6387.45,7065.39 6390.96,7065.39 6393.63,7065.39C6394.53,7065.39 6395.38,7065.79 6395.95,7066.48C6396.53,7067.16 6396.77,7068.07 6396.62,7068.95C6395.5,7075.28 6394.15,7082.93 6393.19,7088.4C6392.93,7089.85 6391.67,7090.91 6390.2,7090.91C6387.48,7090.91 6383.24,7090.91 6380.88,7090.91C6380.53,7090.91 6374.86,7090.87 6372.9,7090.86C6372.53,7090.86 6372.2,7091.13 6372.14,7091.5C6370.04,7103.41 6362.72,7144.9 6360.82,7155.66C6360.57,7157.12 6359.31,7158.17 6357.83,7158.17C6352.69,7158.17 6345.51,7158.17 6339.88,7158.17C6338.99,7158.17 6338.14,7157.78 6337.56,7157.09C6336.98,7156.4 6336.74,7155.49 6336.89,7154.61C6338.98,7142.81 6345.64,7104.99 6347.94,7091.97Z" style="fill:rgb(0,58,148);"/>
                            </g>
                            <g transform="matrix(0.447226,0,0,0.560283,312.579,-3291.51)">
                                <path d="M6240.85,7155.66C6240.59,7157.12 6239.33,7158.17 6237.86,7158.17C6233.54,7158.17 6224.77,7158.17 6219.82,7158.17C6218.92,7158.17 6218.07,7157.78 6217.49,7157.09C6216.92,7156.4 6216.68,7155.49 6216.83,7154.61C6218.97,7142.5 6225.93,7103.01 6228.06,7090.9C6228.22,7090.02 6227.98,7089.11 6227.4,7088.43C6226.82,7087.74 6225.97,7087.34 6225.07,7087.34C6223.63,7087.34 6221.97,7087.34 6220.52,7087.34C6219.62,7087.34 6218.77,7086.94 6218.19,7086.26C6217.62,7085.57 6217.37,7084.66 6217.53,7083.78C6218.4,7078.84 6219.95,7070.04 6220.71,7065.74C6220.97,7064.29 6222.23,7063.23 6223.7,7063.23C6225.79,7063.23 6228.73,7063.23 6230.73,7063.23C6232.04,7063.23 6233.2,7062.39 6233.61,7061.15C6234.55,7058.27 6236.43,7053.06 6238.59,7049.49C6241.72,7044.35 6245.55,7039.88 6250.09,7036.06C6254.64,7032.25 6259.67,7029.24 6265.21,7027.02C6269.36,7025.36 6272.14,7024.54 6275.73,7024.23C6276.67,7024.14 6277.6,7024.5 6278.24,7025.19C6278.88,7025.88 6279.16,7026.83 6278.99,7027.76C6278.12,7032.84 6276.53,7041.85 6275.78,7046.09C6275.55,7047.39 6274.5,7048.4 6273.19,7048.57C6272.4,7048.64 6271.48,7048.83 6270.56,7049.19C6268.18,7050.1 6266.04,7051.37 6264.13,7053C6262.22,7054.62 6260.59,7056.54 6259.26,7058.76C6259.26,7058.76 6259.25,7058.76 6259.25,7058.76C6258.7,7059.67 6258.69,7060.81 6259.21,7061.73C6259.73,7062.66 6260.71,7063.23 6261.78,7063.23C6263.52,7063.23 6265.47,7063.23 6267.11,7063.23C6268,7063.23 6268.86,7063.63 6269.43,7064.31C6270.01,7065 6270.25,7065.91 6270.1,7066.79C6269.23,7071.73 6267.67,7080.53 6266.91,7084.83C6266.66,7086.28 6265.4,7087.34 6263.93,7087.34C6261.5,7087.34 6257.87,7087.34 6255.44,7087.34C6253.97,7087.34 6252.71,7088.4 6252.45,7089.85C6250.51,7100.84 6242.78,7144.68 6240.85,7155.66Z" style="fill:rgb(0,58,148);"/>
                            </g>
                            <g transform="matrix(0.447226,0,0,0.560283,312.579,-3291.51)">
                                <path d="M6300.02,7155.66C6299.76,7157.12 6298.5,7158.17 6297.03,7158.17C6292.68,7158.17 6283.8,7158.17 6278.81,7158.17C6277.91,7158.17 6277.06,7157.78 6276.49,7157.09C6275.91,7156.4 6275.67,7155.49 6275.82,7154.61C6278.53,7139.24 6289.19,7078.82 6291.49,7065.74C6291.75,7064.29 6293.01,7063.23 6294.48,7063.23C6298.83,7063.23 6307.71,7063.23 6312.7,7063.23C6313.6,7063.23 6314.45,7063.63 6315.02,7064.31C6315.6,7065 6315.84,7065.91 6315.69,7066.79C6312.98,7082.16 6302.32,7142.58 6300.02,7155.66Z" style="fill:rgb(0,58,148);"/>
                            </g>
                            <g transform="matrix(0.447226,0,0,0.560283,383.075,-3291.51)">
                                <path d="M5979.11,7155.66C5978.86,7157.12 5977.6,7158.17 5976.12,7158.17L5958.09,7158.17C5957.19,7158.17 5956.34,7157.78 5955.76,7157.09C5955.18,7156.4 5954.94,7155.49 5955.1,7154.61C5956.94,7144.16 5962.32,7113.65 5964.28,7102.52C5964.76,7099.78 5965.5,7097.1 5966.47,7094.49C5966.47,7094.49 5966.47,7094.49 5966.47,7094.49C5969.45,7086.57 5974.5,7079.59 5981.1,7074.3C5982.47,7073.2 5983.41,7072.45 5983.41,7072.45C5987.94,7068.9 5992.84,7066.17 5998.11,7064.25C6003.39,7062.33 6008.71,7061.37 6014.09,7061.37C6019.88,7061.37 6025.15,7062.48 6029.9,7064.69C6034.65,7066.91 6038.61,7069.95 6041.77,7073.82C6044.93,7077.69 6047.16,7082.22 6048.46,7087.39C6049.77,7092.56 6049.9,7098.07 6048.87,7103.92C6048.87,7103.92 6041.63,7144.99 6039.75,7155.66C6039.49,7157.12 6038.23,7158.17 6036.76,7158.17L6018.72,7158.17C6017.82,7158.17 6016.97,7157.78 6016.4,7157.09C6015.82,7156.4 6015.58,7155.49 6015.73,7154.61C6017.86,7142.54 6024.67,7103.92 6024.67,7103.92C6025.11,7101.44 6025.05,7099.09 6024.49,7096.87C6023.94,7094.65 6022.98,7092.72 6021.62,7091.07C6020.26,7089.41 6018.56,7088.11 6016.54,7087.16C6014.52,7086.22 6012.27,7085.75 6009.79,7085.75C6007.25,7085.75 6004.77,7086.22 6002.36,7087.16C5999.95,7088.11 5997.77,7089.41 5995.82,7091.07C5993.87,7092.72 5992.23,7094.65 5990.9,7096.87C5989.56,7099.09 5988.67,7101.44 5988.23,7103.92L5979.11,7155.66Z" style="fill:rgb(0,58,148);"/>
                            </g>
                            <g transform="matrix(0.752169,0,0,0.942314,-5443.95,-1777.79)">
                                <path d="M11279.4,2647.19C11279.2,2648.05 11278.5,2648.68 11277.6,2648.68C11277.3,2648.68 11277,2648.68 11276.7,2648.68C11276.1,2648.68 11275.5,2648.32 11275.1,2647.74C11274.5,2646.51 11273.3,2644.33 11272.4,2642.76C11272.2,2642.31 11271.7,2641.98 11271.2,2641.87C11270.7,2641.75 11270.2,2641.86 11269.8,2642.16C11268.7,2642.94 11267.6,2643.68 11266.5,2644.39C11264.8,2645.46 11263,2646.39 11261.2,2647.18C11259.3,2647.97 11257.5,2648.6 11255.6,2649.05C11253.8,2649.51 11251.9,2649.74 11250.1,2649.74C11246.1,2649.74 11242.5,2649.07 11239.3,2647.73C11236,2646.4 11233.3,2644.46 11231.1,2641.91C11229,2639.36 11227.4,2636.24 11226.6,2632.55C11225.7,2628.86 11225.7,2624.66 11226.5,2619.96C11227.3,2615.56 11228.8,2611.53 11230.9,2607.86C11233.1,2604.19 11235.7,2601.03 11238.8,2598.4C11241.9,2595.76 11245.3,2593.72 11249,2592.26C11252.8,2590.8 11256.7,2590.07 11260.6,2590.07C11262.5,2590.07 11264.2,2590.3 11265.9,2590.75C11267.7,2591.21 11269.3,2591.84 11270.8,2592.65C11272.4,2593.46 11273.8,2594.41 11275.1,2595.5C11276,2596.2 11276.8,2596.93 11277.6,2597.71C11277.9,2598.05 11278.4,2598.24 11278.9,2598.24C11279.3,2598.25 11279.8,2598.06 11280.1,2597.72C11281.6,2596.24 11284,2593.89 11285.1,2592.86C11285.4,2592.52 11285.9,2592.34 11286.3,2592.34C11286.5,2592.34 11286.7,2592.34 11286.9,2592.34C11287.4,2592.34 11288,2592.57 11288.3,2592.98C11288.6,2593.39 11288.8,2593.93 11288.7,2594.45C11287.1,2603.58 11280.8,2639.42 11279.4,2647.19ZM11269.7,2619.96C11270,2617.99 11270,2616.08 11269.6,2614.24C11269.1,2612.39 11268.4,2610.76 11267.4,2609.34C11266.3,2607.91 11265,2606.77 11263.4,2605.91C11261.8,2605.05 11260,2604.62 11258.1,2604.62C11256.1,2604.62 11254.2,2604.95 11252.3,2605.62C11250.5,2606.29 11248.8,2607.27 11247.3,2608.57C11245.8,2609.87 11244.5,2611.48 11243.4,2613.39C11242.3,2615.31 11241.6,2617.5 11241.1,2619.96C11240.7,2622.42 11240.7,2624.6 11241.1,2626.52C11241.5,2628.43 11242.2,2630.04 11243.3,2631.34C11244.3,2632.64 11245.7,2633.62 11247.3,2634.29C11248.9,2634.96 11250.7,2635.29 11252.7,2635.29C11254.6,2635.29 11256.6,2634.86 11258.4,2634C11260.3,2633.14 11262.1,2632 11263.6,2630.58C11265.2,2629.15 11266.5,2627.52 11267.6,2625.68C11268.6,2623.83 11269.4,2621.92 11269.7,2619.96Z" style="fill:rgb(0,58,148);"/>
                            </g>
                            <g transform="matrix(0.447226,0,0,0.560283,312.579,-3291.51)">
                                <path d="M6322.9,7039.58C6322.56,7041.57 6321.86,7043.42 6320.83,7045.15C6319.79,7046.87 6318.52,7048.38 6317.02,7049.66C6315.52,7050.94 6313.85,7051.96 6312.01,7052.72C6310.16,7053.47 6308.27,7053.85 6306.33,7053.85C6304.39,7053.85 6302.62,7053.47 6301.04,7052.72C6299.46,7051.96 6298.15,7050.94 6297.12,7049.66C6296.09,7048.38 6295.35,7046.87 6294.91,7045.15C6294.47,7043.42 6294.41,7041.57 6294.76,7039.58C6295.09,7037.65 6295.78,7035.81 6296.82,7034.05C6297.86,7032.3 6299.12,7030.79 6300.6,7029.51C6302.07,7028.23 6303.73,7027.21 6305.57,7026.45C6307.41,7025.69 6309.31,7025.31 6311.25,7025.31C6313.19,7025.31 6314.95,7025.69 6316.54,7026.45C6318.12,7027.21 6319.44,7028.23 6320.49,7029.51C6321.55,7030.79 6322.3,7032.3 6322.74,7034.05C6323.18,7035.81 6323.23,7037.65 6322.9,7039.58Z" style="fill:rgb(0,58,148);"/>
                            </g>
                            <g transform="matrix(0.752169,0,0,0.942314,-3296.98,173.738)">
                                <path d="M8310.86,540.215C8310.77,540.168 8310.7,540.088 8310.67,539.992C8310.64,539.896 8310.66,539.793 8310.7,539.705C8310.88,539.392 8311.05,539.08 8311.24,538.771C8313.39,535.117 8317.15,530.282 8320.24,527.611C8323.32,524.941 8326.75,522.85 8330.51,521.339C8334.27,519.828 8338.14,519.072 8342.11,519.072C8343.38,519.072 8344.67,519.178 8345.98,519.388C8347.3,519.599 8348.56,519.942 8349.76,520.416C8350.95,520.891 8352.05,521.514 8353.04,522.287C8353.08,522.318 8353.11,522.348 8353.15,522.379C8353.65,522.779 8354.32,522.886 8354.92,522.662C8355.51,522.438 8355.95,521.915 8356.06,521.287C8357.1,515.364 8359.06,504.276 8359.76,500.27C8359.92,499.408 8360.67,498.779 8361.54,498.779C8364.13,498.779 8369.41,498.779 8372.37,498.779C8372.91,498.779 8373.41,499.015 8373.76,499.423C8374.1,499.832 8374.24,500.372 8374.15,500.897C8372.14,512.327 8362.59,566.487 8360.87,576.194C8360.72,577.057 8359.97,577.686 8359.1,577.686L8358.2,577.686C8357.54,577.686 8356.93,577.325 8356.62,576.744C8355.95,575.513 8354.76,573.328 8353.91,571.766C8353.66,571.311 8353.23,570.984 8352.72,570.869C8352.21,570.755 8351.68,570.864 8351.26,571.168C8350.19,571.943 8347,573.681 8345.86,574.387C8345.65,574.522 8345.43,574.655 8344.95,574.965C8344.86,575.022 8344.75,575.039 8344.65,575.01C8344.55,574.982 8344.46,574.912 8344.42,574.817C8342.27,570.514 8340.29,568.211 8336.93,566.352C8336.8,566.279 8336.72,566.135 8336.74,565.987C8336.76,565.838 8336.86,565.713 8337,565.669C8337.78,565.418 8338.59,565.102 8338.82,564.992C8341.33,563.772 8343.54,561.003 8345.09,559.58C8346.64,558.157 8347.96,556.523 8349.04,554.678C8350.12,552.833 8350.83,550.927 8351.18,548.959C8351.53,546.991 8351.49,545.085 8351.06,543.24C8350.62,541.395 8349.89,539.761 8348.84,538.338C8347.79,536.915 8346.47,535.773 8344.88,534.912C8343.29,534.051 8341.51,533.62 8339.55,533.62C8337.58,533.62 8335.66,533.972 8333.8,534.674C8331.94,535.377 8330.25,536.387 8328.73,537.705C8327.22,539.023 8325.92,540.631 8324.85,542.528C8323.78,544.426 8322.37,548.345 8322.12,549.124C8322.11,549.164 8322.08,549.36 8322.03,549.595C8322,549.746 8321.88,549.865 8321.73,549.894C8321.58,549.924 8321.43,549.858 8321.34,549.728C8318.57,545.434 8314.61,542.239 8310.86,540.215Z" style="fill:rgb(0,58,148);"/>
                            </g>
                        </g>
                    </g>
                </g>
            </g>
        </g>
    </g>
</svg>
