<?xml version="1.0" encoding="UTF-8" standalone="no"?>
<!DOCTYPE svg PUBLIC "-//W3C//DTD SVG 1.1//EN" "http://www.w3.org/Graphics/SVG/1.1/DTD/svg11.dtd">
<svg width="100%" height="100%" viewBox="0 0 253 285" version="1.1" xmlns="http://www.w3.org/2000/svg" xmlns:xlink="http://www.w3.org/1999/xlink" xml:space="preserve" xmlns:serif="http://www.serif.com/" style="fill-rule:evenodd;clip-rule:evenodd;stroke-linejoin:round;stroke-miterlimit:2;">
    <g transform="matrix(1,0,0,1,-629,-1773)">
        <g id="danfit_logotype_cropped_color" transform="matrix(0.174883,0,0,0.278563,186.781,1728.74)">
            <rect x="2529.34" y="161.924" width="1444.16" height="1017.7" style="fill:none;"/>
            <g transform="matrix(1.12531,0,0,1.00252,-335.028,-1.69139)">
                <g transform="matrix(23.6974,0,0,13.3298,-70906.2,-6829.11)">
                    <g>
                        <g transform="matrix(0.831153,0,0,1.04127,-3800.28,6.91569)">
                            <circle cx="8308.27" cy="547.358" r="6.506" style="fill:rgb(0,172,212);"/>
                        </g>
                        <g transform="matrix(0.686439,0,0,0.859969,-2590.91,121.826)">
                            <circle cx="8308.27" cy="547.358" r="6.506" style="fill:rgb(0,172,212);"/>
                        </g>
                        <g transform="matrix(0.552307,0,0,0.691928,-1464.8,217.225)">
                            <circle cx="8308.27" cy="547.358" r="6.506" style="fill:rgb(0,172,212);"/>
                        </g>
                    </g>
                </g>
                <g transform="matrix(17.8245,0,0,12.5609,-145441,-6098.43)">
                    <path d="M8310.86,540.217C8310.77,540.17 8310.7,540.088 8310.67,539.991C8310.65,539.895 8310.66,539.79 8310.7,539.701C8310.88,539.389 8311.05,539.079 8311.24,538.771C8313.39,535.117 8317.15,530.282 8320.24,527.611C8323.32,524.941 8326.75,522.85 8330.51,521.339C8334.27,519.828 8338.14,519.072 8342.11,519.072C8343.38,519.072 8344.67,519.178 8345.98,519.388C8347.3,519.599 8348.56,519.942 8349.76,520.416C8350.95,520.891 8352.05,521.514 8353.04,522.287C8353.08,522.318 8353.11,522.348 8353.15,522.379C8353.65,522.779 8354.32,522.886 8354.92,522.662C8355.51,522.438 8355.95,521.915 8356.06,521.287C8357.1,515.364 8359.06,504.276 8359.76,500.27C8359.92,499.408 8360.67,498.779 8361.54,498.779C8364.13,498.779 8369.41,498.779 8372.37,498.779C8372.91,498.779 8373.41,499.015 8373.76,499.423C8374.1,499.832 8374.24,500.372 8374.15,500.897C8372.14,512.327 8362.59,566.487 8360.87,576.194C8360.72,577.057 8359.97,577.686 8359.1,577.686L8358.2,577.686C8357.54,577.686 8356.93,577.325 8356.62,576.744C8355.95,575.513 8354.76,573.328 8353.91,571.766C8353.66,571.311 8353.23,570.984 8352.72,570.869C8352.21,570.755 8351.68,570.864 8351.26,571.168C8350.19,571.943 8347,573.681 8345.86,574.387C8345.65,574.522 8345.43,574.654 8344.96,574.962C8344.87,575.02 8344.76,575.037 8344.65,575.008C8344.55,574.98 8344.46,574.909 8344.41,574.813C8342.27,570.516 8340.29,568.214 8336.94,566.356C8336.81,566.283 8336.73,566.138 8336.75,565.987C8336.76,565.837 8336.87,565.711 8337.01,565.667C8337.78,565.416 8338.59,565.101 8338.82,564.992C8341.33,563.772 8343.54,561.003 8345.09,559.58C8346.64,558.157 8347.96,556.523 8349.04,554.678C8350.12,552.833 8350.83,550.927 8351.18,548.959C8351.53,546.991 8351.49,545.085 8351.06,543.24C8350.62,541.395 8349.89,539.761 8348.84,538.338C8347.79,536.915 8346.47,535.773 8344.88,534.912C8343.29,534.051 8341.51,533.62 8339.55,533.62C8337.58,533.62 8335.66,533.972 8333.8,534.674C8331.94,535.377 8330.25,536.387 8328.73,537.705C8327.22,539.023 8325.92,540.631 8324.85,542.528C8323.78,544.426 8322.37,548.345 8322.12,549.124C8322.11,549.163 8322.08,549.355 8322.03,549.585C8322,549.738 8321.88,549.858 8321.73,549.888C8321.58,549.918 8321.42,549.851 8321.34,549.719C8318.57,545.431 8314.61,542.24 8310.86,540.217Z" style="fill:rgb(0,58,148);"/>
                </g>
            </g>
        </g>
    </g>
</svg>
